<?xml version="1.0" encoding="utf-8"?>
<!-- created with bpmn-js / http://bpmn.io -->
<!DOCTYPE svg PUBLIC "-//W3C//DTD SVG 1.1//EN" "http://www.w3.org/Graphics/SVG/1.1/DTD/svg11.dtd">
<svg xmlns="http://www.w3.org/2000/svg" xmlns:xlink="http://www.w3.org/1999/xlink" width="728" height="377" viewBox="-2 -36 728 377" version="1.1"><defs><marker id="sequenceflow-end-white-black-dzk23i06hpzwwvj0fowhfbreu" viewBox="0 0 20 20" refX="11" refY="10" markerWidth="10" markerHeight="10" orient="auto"><path d="M 1 5 L 11 10 L 1 15 Z" style="fill: black; stroke-width: 1px; stroke-linecap: round; stroke-dasharray: 10000px, 1px; stroke: black;"/></marker></defs><g class="djs-group"><g class="djs-element djs-connection" data-element-id="SequenceFlow_1ezcvcs" style="display: block;"><g class="djs-visual"><path d="m  199,99L242,99 " style="fill: none; stroke-width: 2px; stroke: black; stroke-linejoin: round; marker-end: url('#sequenceflow-end-white-black-dzk23i06hpzwwvj0fowhfbreu');"/></g><polyline points="199,99 242,99 " style="fill: none; stroke-opacity: 0; stroke: white; stroke-width: 15px;" class="djs-hit djs-hit-stroke"/><rect x="193" y="93" width="55" height="12" style="fill: none;" class="djs-outline"/></g></g><g class="djs-group"><g class="djs-element djs-connection" data-element-id="SequenceFlow_0lqttxg" style="display: block;"><g class="djs-visual"><path d="m  515,111L442,111 " style="fill: none; stroke-width: 2px; stroke: black; stroke-linejoin: round; marker-end: url('#sequenceflow-end-white-black-dzk23i06hpzwwvj0fowhfbreu');"/></g><polyline points="515,111 442,111 " style="fill: none; stroke-opacity: 0; stroke: white; stroke-width: 15px;" class="djs-hit djs-hit-stroke"/><rect x="436" y="105" width="85" height="12" style="fill: none;" class="djs-outline"/></g></g><g class="djs-group"><g class="djs-element djs-connection" data-element-id="SequenceFlow_10ql3pz" style="display: block;"><g class="djs-visual"><path d="m  442,85L515,85 " style="fill: none; stroke-width: 2px; stroke: black; stroke-linejoin: round; marker-end: url('#sequenceflow-end-white-black-dzk23i06hpzwwvj0fowhfbreu');"/></g><polyline points="442,85 515,85 " style="fill: none; stroke-opacity: 0; stroke: white; stroke-width: 15px;" class="djs-hit djs-hit-stroke"/><rect x="436" y="79" width="85" height="12" style="fill: none;" class="djs-outline"/></g></g><g class="djs-group"><g class="djs-element djs-connection" data-element-id="SequenceFlow_1dsvbp5" style="display: block;"><g class="djs-visual"><path d="m  292,99L342,99 " style="fill: none; stroke-width: 2px; stroke: black; stroke-linejoin: round; marker-end: url('#sequenceflow-end-white-black-dzk23i06hpzwwvj0fowhfbreu');"/></g><polyline points="292,99 342,99 " style="fill: none; stroke-opacity: 0; stroke: white; stroke-width: 15px;" class="djs-hit djs-hit-stroke"/><rect x="286" y="93" width="62" height="12" style="fill: none;" class="djs-outline"/></g></g><g class="djs-group"><g class="djs-element djs-connection" data-element-id="SequenceFlow_0vjd48z" style="display: block;"><g class="djs-visual"><path d="m  217,295L167,295 L167,191 L249,191 " style="fill: none; stroke-width: 2px; stroke: black; stroke-linejoin: round; marker-end: url('#sequenceflow-end-white-black-dzk23i06hpzwwvj0fowhfbreu');"/></g><polyline points="217,295 167,295 167,191 249,191 " style="fill: none; stroke-opacity: 0; stroke: white; stroke-width: 15px;" class="djs-hit djs-hit-stroke"/><rect x="161" y="185" width="94" height="116" style="fill: none;" class="djs-outline"/></g></g><g class="djs-group"><g class="djs-element djs-connection" data-element-id="SequenceFlow_076z9sp" style="display: block;"><g class="djs-visual"><path d="m  267,209L267,255 " style="fill: none; stroke-width: 2px; stroke: black; stroke-linejoin: round; marker-end: url('#sequenceflow-end-white-black-dzk23i06hpzwwvj0fowhfbreu');"/></g><polyline points="267,209 267,255 " style="fill: none; stroke-opacity: 0; stroke: white; stroke-width: 15px;" class="djs-hit djs-hit-stroke"/><rect x="261" y="203" width="12" height="58" style="fill: none;" class="djs-outline"/></g></g><g class="djs-group"><g class="djs-element djs-connection" data-element-id="SequenceFlow_17b5ej9" style="display: block;"><g class="djs-visual"><path d="m  267,124L267,173 " style="fill: none; stroke-width: 2px; stroke: black; stroke-linejoin: round; marker-end: url('#sequenceflow-end-white-black-dzk23i06hpzwwvj0fowhfbreu');"/></g><polyline points="267,124 267,173 " style="fill: none; stroke-opacity: 0; stroke: white; stroke-width: 15px;" class="djs-hit djs-hit-stroke"/><rect x="261" y="118" width="12" height="61" style="fill: none;" class="djs-outline"/></g></g><g class="djs-group"><g class="djs-element djs-connection" data-element-id="SequenceFlow_1n32aoo" style="display: block;"><g class="djs-visual"><path d="m  40,99L99,99 " style="fill: none; stroke-width: 2px; stroke: black; stroke-linejoin: round; marker-end: url('#sequenceflow-end-white-black-dzk23i06hpzwwvj0fowhfbreu');"/></g><polyline points="40,99 99,99 " style="fill: none; stroke-opacity: 0; stroke: white; stroke-width: 15px;" class="djs-hit djs-hit-stroke"/><rect x="34" y="93" width="71" height="12" style="fill: none;" class="djs-outline"/></g></g><g class="djs-group"><g class="djs-element djs-shape" data-element-id="IntermediateThrowEvent_1po23nv" transform="matrix(1, 0, 0, 1, 249, 173)" style="display: block;"><g class="djs-visual"><circle cx="18" cy="18" r="18" style="stroke: black; stroke-width: 1px; fill: white; fill-opacity: 0.95;"/><circle cx="18" cy="18" r="15" style="stroke: black; stroke-width: 1px; fill: none;"/><path d="M 18,7.2 l 9,16.2 l -18,0 Z" style="fill: none; stroke-width: 1px; stroke: black;"/></g><rect style="fill: none; stroke-opacity: 0; stroke: white; stroke-width: 15px;" class="djs-hit djs-hit-all" x="0" y="0" width="36" height="36"/><rect x="-6" y="-6" width="48" height="48" style="fill: none;" class="djs-outline"/></g></g><g class="djs-group"><g class="djs-element djs-shape" data-element-id="IntermediateThrowEvent_1po23nv_label" transform="matrix(1, 0, 0, 1, 283, 163)" style="display: block;"><g class="djs-visual"><text style="font-family: Arial, sans-serif; font-size: 11px; font-weight: normal; fill: black;" lineHeight="1.2" class="djs-label"><tspan x="0" y="9.899999999999999">update</tspan></text></g><rect style="fill: none; stroke-opacity: 0; stroke: white; stroke-width: 15px;" class="djs-hit djs-hit-all" x="0" y="0" width="34" height="14"/><rect x="-6" y="-6" width="46" height="26" style="fill: none;" class="djs-outline"/></g></g><g class="djs-group"><g class="djs-element djs-shape" data-element-id="StartEvent_0tkd0h7" transform="matrix(1, 0, 0, 1, 4, 81)" style="display: block;"><g class="djs-visual"><circle cx="18" cy="18" r="18" style="stroke: black; stroke-width: 2px; fill: white; fill-opacity: 0.95;"/><path d="M 18,7.2 l 9,16.2 l -18,0 Z" style="fill: none; stroke-width: 1px; stroke: black;"/></g><rect style="fill: none; stroke-opacity: 0; stroke: white; stroke-width: 15px;" class="djs-hit djs-hit-all" x="0" y="0" width="36" height="36"/><rect x="-6" y="-6" width="48" height="48" style="fill: none;" class="djs-outline"/></g></g><g class="djs-group"><g class="djs-element djs-shape" data-element-id="StartEvent_0tkd0h7_label" transform="matrix(1, 0, 0, 1, 12, 124)" style="display: block;"><g class="djs-visual"><text style="font-family: Arial, sans-serif; font-size: 11px; font-weight: normal; fill: black;" lineHeight="1.2" class="djs-label"><tspan x="0" y="9.899999999999999">new</tspan></text></g><rect style="fill: none; stroke-opacity: 0; stroke: white; stroke-width: 15px;" class="djs-hit djs-hit-all" x="0" y="0" width="21" height="14"/><rect x="-6" y="-6" width="33" height="26" style="fill: none;" class="djs-outline"/></g></g><g class="djs-group"><g class="djs-element djs-shape" data-element-id="Task_03h46wc" transform="matrix(1, 0, 0, 1, 342, 59)" style="display: block;"><g class="djs-visual"><rect x="0" y="0" width="100" height="80" rx="10" ry="10" style="stroke: black; stroke-width: 2px; fill: white; fill-opacity: 0.95;"/><text style="font-family: Arial, sans-serif; font-size: 12px; font-weight: normal; fill: black;" lineHeight="1.2" class="djs-label"><tspan x="35.30999946594238" y="43.599999999999994">test 1</tspan></text><path d="m 15,12 c 0.909,-0.845 1.594,-2.049 1.594,-3.385 0,-2.554 -1.805,-4.62199999 -4.357,-4.62199999 -2.55199998,0 -4.28799998,2.06799999 -4.28799998,4.62199999 0,1.348 0.974,2.562 1.89599998,3.405 -0.52899998,0.187 -5.669,2.097 -5.794,4.7560005 v 6.718 h 17 v -6.718 c 0,-2.2980005 -5.5279996,-4.5950005 -6.0509996,-4.7760005 zm -8,6 l 0,5.5 m 11,0 l 0,-5" style="fill: white; stroke-width: 0.5px; stroke: black;"/><path d="m 15,12 m 2.162,1.009 c 0,2.4470005 -2.158,4.4310005 -4.821,4.4310005 -2.66499998,0 -4.822,-1.981 -4.822,-4.4310005 " style="fill: white; stroke-width: 0.5px; stroke: black;"/><path d="m 15,12 m -6.9,-3.80 c 0,0 2.25099998,-2.358 4.27399998,-1.177 2.024,1.181 4.221,1.537 4.124,0.965 -0.098,-0.57 -0.117,-3.79099999 -4.191,-4.13599999 -3.57499998,0.001 -4.20799998,3.36699999 -4.20699998,4.34799999 z" style="fill: black; stroke-width: 0.5px; stroke: black;"/></g><rect style="fill: none; stroke-opacity: 0; stroke: white; stroke-width: 15px;" class="djs-hit djs-hit-all" x="0" y="0" width="100" height="80"/><rect x="-6" y="-6" width="112" height="92" style="fill: none;" class="djs-outline"/></g></g><g class="djs-group"><g class="djs-element djs-shape" data-element-id="Task_1va4whm" transform="matrix(1, 0, 0, 1, 515, 59)" style="display: block;"><g class="djs-visual"><rect x="0" y="0" width="100" height="80" rx="10" ry="10" style="stroke: black; stroke-width: 2px; fill: white; fill-opacity: 0.95;"/><text style="font-family: Arial, sans-serif; font-size: 12px; font-weight: normal; fill: black;" lineHeight="1.2" class="djs-label"><tspan x="35.30999946594238" y="43.599999999999994">test 2</tspan></text><path d="m 15,12 c 0.909,-0.845 1.594,-2.049 1.594,-3.385 0,-2.554 -1.805,-4.62199999 -4.357,-4.62199999 -2.55199998,0 -4.28799998,2.06799999 -4.28799998,4.62199999 0,1.348 0.974,2.562 1.89599998,3.405 -0.52899998,0.187 -5.669,2.097 -5.794,4.7560005 v 6.718 h 17 v -6.718 c 0,-2.2980005 -5.5279996,-4.5950005 -6.0509996,-4.7760005 zm -8,6 l 0,5.5 m 11,0 l 0,-5" style="fill: white; stroke-width: 0.5px; stroke: black;"/><path d="m 15,12 m 2.162,1.009 c 0,2.4470005 -2.158,4.4310005 -4.821,4.4310005 -2.66499998,0 -4.822,-1.981 -4.822,-4.4310005 " style="fill: white; stroke-width: 0.5px; stroke: black;"/><path d="m 15,12 m -6.9,-3.80 c 0,0 2.25099998,-2.358 4.27399998,-1.177 2.024,1.181 4.221,1.537 4.124,0.965 -0.098,-0.57 -0.117,-3.79099999 -4.191,-4.13599999 -3.57499998,0.001 -4.20799998,3.36699999 -4.20699998,4.34799999 z" style="fill: black; stroke-width: 0.5px; stroke: black;"/></g><rect style="fill: none; stroke-opacity: 0; stroke: white; stroke-width: 15px;" class="djs-hit djs-hit-all" x="0" y="0" width="100" height="80"/><rect x="-6" y="-6" width="112" height="92" style="fill: none;" class="djs-outline"/></g></g><g class="djs-group"><g class="djs-element djs-shape" data-element-id="ExclusiveGateway_0w35i3x" transform="matrix(1, 0, 0, 1, 242, 74)" style="display: block;"><g class="djs-visual"><polygon points="25,0 50,25 25,50 0,25" style="stroke: black; stroke-width: 2px; fill: white; fill-opacity: 0.95;"/><path d="m 23,10 0,12.5 -12.5,0 0,5 12.5,0 0,12.5 5,0 0,-12.5 12.5,0 0,-5 -12.5,0 0,-12.5 -5,0 z" style="fill: black; stroke-width: 1px; stroke: black;"/></g><rect style="fill: none; stroke-opacity: 0; stroke: white; stroke-width: 15px;" class="djs-hit djs-hit-all" x="0" y="0" width="50" height="50"/><rect x="-6" y="-6" width="62" height="62" style="fill: none;" class="djs-outline"/></g></g><g class="djs-group"><g class="djs-element djs-shape" data-element-id="Task_1qb7nkw" transform="matrix(1, 0, 0, 1, 99, 59)" style="display: block;"><g class="djs-visual"><rect x="0" y="0" width="100" height="80" rx="10" ry="10" style="stroke: black; stroke-width: 2px; fill: white; fill-opacity: 0.95;"/><text style="font-family: Arial, sans-serif; font-size: 12px; font-weight: normal; fill: black;" lineHeight="1.2" class="djs-label"><tspan x="31.979999542236328" y="36.4">Create </tspan><tspan x="23.979999542236328" y="50.8">Customer</tspan></text><path d="m 15,20 c 9.966553,-6.27276 -8.000926,-7.91932 2.968968,-14.938 l -8.802728,0 c -10.969894,7.01868 6.997585,8.66524 -2.968967,14.938 z m -7,-12 l 5,0 m -4.5,3 l 4.5,0 m -3,3 l 5,0m -4,3 l 5,0" style="fill: none; stroke-width: 1px; stroke: black;"/></g><rect style="fill: none; stroke-opacity: 0; stroke: white; stroke-width: 15px;" class="djs-hit djs-hit-all" x="0" y="0" width="100" height="80"/><rect x="-6" y="-6" width="112" height="92" style="fill: none;" class="djs-outline"/></g></g><g class="djs-group"><g class="djs-element djs-shape" data-element-id="Task_0sud9v5" transform="matrix(1, 0, 0, 1, 217, 255)" style="display: block;"><g class="djs-visual"><rect x="0" y="0" width="100" height="80" rx="10" ry="10" style="stroke: black; stroke-width: 2px; fill: white; fill-opacity: 0.95;"/><text style="font-family: Arial, sans-serif; font-size: 12px; font-weight: normal; fill: black;" lineHeight="1.2" class="djs-label"><tspan x="5.939998626708984" y="43.599999999999994">Append Account</tspan></text><path d="m 15,20 c 9.966553,-6.27276 -8.000926,-7.91932 2.968968,-14.938 l -8.802728,0 c -10.969894,7.01868 6.997585,8.66524 -2.968967,14.938 z m -7,-12 l 5,0 m -4.5,3 l 4.5,0 m -3,3 l 5,0m -4,3 l 5,0" style="fill: none; stroke-width: 1px; stroke: black;"/></g><rect style="fill: none; stroke-opacity: 0; stroke: white; stroke-width: 15px;" class="djs-hit djs-hit-all" x="0" y="0" width="100" height="80"/><rect x="-6" y="-6" width="112" height="92" style="fill: none;" class="djs-outline"/></g></g><g class="djs-group"><g class="djs-element djs-shape" data-element-id="TextAnnotation_1fuigo5" transform="matrix(1, 0, 0, 1, 40, 0)" style="display: block;"><g class="djs-visual"><rect x="0" y="0" width="100" height="41" rx="0" ry="0" style="stroke: none; stroke-width: 2px; fill: none;"/><path d="m 0, 0 m 10,0 l -10,0 l 0,41 l 10,0" style="fill: none; stroke-width: 2px; stroke: black;"/><text style="font-family: Arial, sans-serif; font-size: 12px; font-weight: normal; fill: black;" lineHeight="1.2" class="djs-label"><tspan x="5" y="15.799999999999999">The customer id</tspan><tspan x="5" y="30.199999999999996">was not found</tspan></text></g><rect style="fill: none; stroke-opacity: 0; stroke: white; stroke-width: 15px;" class="djs-hit djs-hit-all" x="0" y="0" width="100" height="41"/><rect x="-6" y="-6" width="112" height="53" style="fill: none;" class="djs-outline"/></g></g><g class="djs-group"><g class="djs-element djs-shape" data-element-id="TextAnnotation_0a3lb54" transform="matrix(1, 0, 0, 1, 200, -30)" style="display: block;"><g class="djs-visual"><rect x="0" y="0" width="167" height="43" rx="0" ry="0" style="stroke: none; stroke-width: 2px; fill: none;"/><path d="m 0, 0 m 10,0 l -10,0 l 0,43 l 10,0" style="fill: none; stroke-width: 2px; stroke: black;"/><text style="font-family: Arial, sans-serif; font-size: 12px; font-weight: normal; fill: black;" lineHeight="1.2" class="djs-label"><tspan x="5" y="15.799999999999999">Associate the customer data </tspan><tspan x="5" y="30.199999999999996">with this process instance</tspan></text></g><rect style="fill: none; stroke-opacity: 0; stroke: white; stroke-width: 15px;" class="djs-hit djs-hit-all" x="0" y="0" width="167" height="43"/><rect x="-6" y="-6" width="179" height="55" style="fill: none;" class="djs-outline"/></g></g><g class="djs-group"><g class="djs-element djs-shape" data-element-id="TextAnnotation_1upifol" transform="matrix(1, 0, 0, 1, 450, -30)" style="display: block;"><g class="djs-visual"><rect x="0" y="0" width="100" height="41" rx="0" ry="0" style="stroke: none; stroke-width: 2px; fill: none;"/><path d="m 0, 0 m 10,0 l -10,0 l 0,41 l 10,0" style="fill: none; stroke-width: 2px; stroke: black;"/><text style="font-family: Arial, sans-serif; font-size: 12px; font-weight: normal; fill: black;" lineHeight="1.2" class="djs-label"><tspan x="5" y="15.799999999999999">Question to a </tspan><tspan x="5" y="30.199999999999996">customer</tspan></text></g><rect style="fill: none; stroke-opacity: 0; stroke: white; stroke-width: 15px;" class="djs-hit djs-hit-all" x="0" y="0" width="100" height="41"/><rect x="-6" y="-6" width="112" height="53" style="fill: none;" class="djs-outline"/></g></g><g class="djs-group"><g class="djs-element djs-shape" data-element-id="TextAnnotation_13w3o9u" transform="matrix(1, 0, 0, 1, 620, -30)" style="display: block;"><g class="djs-visual"><rect x="0" y="0" width="100" height="55" rx="0" ry="0" style="stroke: none; stroke-width: 2px; fill: none;"/><path d="m 0, 0 m 10,0 l -10,0 l 0,55 l 10,0" style="fill: none; stroke-width: 2px; stroke: black;"/><text style="font-family: Arial, sans-serif; font-size: 12px; font-weight: normal; fill: black;" lineHeight="1.2" class="djs-label"><tspan x="5" y="15.799999999999999">Another </tspan><tspan x="5" y="30.199999999999996">question. Know </tspan><tspan x="5" y="44.599999999999994">your customer!</tspan></text></g><rect style="fill: none; stroke-opacity: 0; stroke: white; stroke-width: 15px;" class="djs-hit djs-hit-all" x="0" y="0" width="100" height="55"/><rect x="-6" y="-6" width="112" height="67" style="fill: none;" class="djs-outline"/></g></g><g class="djs-group"><g class="djs-element djs-shape" data-element-id="TextAnnotation_1e9lse7" transform="matrix(1, 0, 0, 1, 370, 163)" style="display: block;"><g class="djs-visual"><rect x="0" y="0" width="100" height="55" rx="0" ry="0" style="stroke: none; stroke-width: 2px; fill: none;"/><path d="m 0, 0 m 10,0 l -10,0 l 0,55 l 10,0" style="fill: none; stroke-width: 2px; stroke: black;"/><text style="font-family: Arial, sans-serif; font-size: 12px; font-weight: normal; fill: black;" lineHeight="1.2" class="djs-label"><tspan x="5" y="15.799999999999999">Existing </tspan><tspan x="5" y="30.199999999999996">customer, new </tspan><tspan x="5" y="44.599999999999994">account</tspan></text></g><rect style="fill: none; stroke-opacity: 0; stroke: white; stroke-width: 15px;" class="djs-hit djs-hit-all" x="0" y="0" width="100" height="55"/><rect x="-6" y="-6" width="112" height="67" style="fill: none;" class="djs-outline"/></g></g><g class="djs-group"><g class="djs-element djs-shape" data-element-id="TextAnnotation_1onv8iv" transform="matrix(1, 0, 0, 1, 390, 240)" style="display: block;"><g class="djs-visual"><rect x="0" y="0" width="173" height="35" rx="0" ry="0" style="stroke: none; stroke-width: 2px; fill: none;"/><path d="m 0, 0 m 10,0 l -10,0 l 0,35 l 10,0" style="fill: none; stroke-width: 2px; stroke: black;"/><text style="font-family: Arial, sans-serif; font-size: 12px; font-weight: normal; fill: black;" lineHeight="1.2" class="djs-label"><tspan x="5" y="15.799999999999999">Add account data to the </tspan><tspan x="5" y="30.199999999999996">customer record</tspan></text></g><rect style="fill: none; stroke-opacity: 0; stroke: white; stroke-width: 15px;" class="djs-hit djs-hit-all" x="0" y="0" width="173" height="35"/><rect x="-6" y="-6" width="185" height="47" style="fill: none;" class="djs-outline"/></g></g><g class="djs-group"><g class="djs-element djs-connection" data-element-id="Association_1nd0srq" style="display: block;"><g class="djs-visual"><polyline points="33,85 69,41 " style="fill: none; stroke: black; stroke-width: 2px; stroke-dasharray: 0.5px, 5px; stroke-linecap: round; stroke-linejoin: round;"/></g><polyline points="33,85 69,41 " style="fill: none; stroke-opacity: 0; stroke: white; stroke-width: 15px;" class="djs-hit djs-hit-stroke"/><rect x="27" y="35" width="48" height="56" style="fill: none;" class="djs-outline"/></g></g><g class="djs-group"><g class="djs-element djs-connection" data-element-id="Association_1drtpyr" style="display: block;"><g class="djs-visual"><polyline points="184,59 225,13 " style="fill: none; stroke: black; stroke-width: 2px; stroke-dasharray: 0.5px, 5px; stroke-linecap: round; stroke-linejoin: round;"/></g><polyline points="184,59 225,13 " style="fill: none; stroke-opacity: 0; stroke: white; stroke-width: 15px;" class="djs-hit djs-hit-stroke"/><rect x="178" y="7" width="53" height="58" style="fill: none;" class="djs-outline"/></g></g><g class="djs-group"><g class="djs-element djs-connection" data-element-id="Association_01y0iy6" style="display: block;"><g class="djs-visual"><polyline points="430,59 475,11 " style="fill: none; stroke: black; stroke-width: 2px; stroke-dasharray: 0.5px, 5px; stroke-linecap: round; stroke-linejoin: round;"/></g><polyline points="430,59 475,11 " style="fill: none; stroke-opacity: 0; stroke: white; stroke-width: 15px;" class="djs-hit djs-hit-stroke"/><rect x="424" y="5" width="57" height="60" style="fill: none;" class="djs-outline"/></g></g><g class="djs-group"><g class="djs-element djs-connection" data-element-id="Association_18khcnr" style="display: block;"><g class="djs-visual"><polyline points="602,59 633,25 " style="fill: none; stroke: black; stroke-width: 2px; stroke-dasharray: 0.5px, 5px; stroke-linecap: round; stroke-linejoin: round;"/></g><polyline points="602,59 633,25 " style="fill: none; stroke-opacity: 0; stroke: white; stroke-width: 15px;" class="djs-hit djs-hit-stroke"/><rect x="596" y="19" width="43" height="46" style="fill: none;" class="djs-outline"/></g></g><g class="djs-group"><g class="djs-element djs-connection" data-element-id="Association_1r58zku" style="display: block;"><g class="djs-visual"><polyline points="285,189 370,182 " style="fill: none; stroke: black; stroke-width: 2px; stroke-dasharray: 0.5px, 5px; stroke-linecap: round; stroke-linejoin: round;"/></g><polyline points="285,189 370,182 " style="fill: none; stroke-opacity: 0; stroke: white; stroke-width: 15px;" class="djs-hit djs-hit-stroke"/><rect x="279" y="176" width="97" height="19" style="fill: none;" class="djs-outline"/></g></g><g class="djs-group"><g class="djs-element djs-connection" data-element-id="Association_19mmfv3" style="display: block;"><g class="djs-visual"><polyline points="317,284 390,267 " style="fill: none; stroke: black; stroke-width: 2px; stroke-dasharray: 0.5px, 5px; stroke-linecap: round; stroke-linejoin: round;"/></g><polyline points="317,284 390,267 " style="fill: none; stroke-opacity: 0; stroke: white; stroke-width: 15px;" class="djs-hit djs-hit-stroke"/><rect x="311" y="261" width="85" height="29" style="fill: none;" class="djs-outline"/></g></g></svg>