<?xml version="1.0" encoding="utf-8"?>
<!-- created with bpmn-js / http://bpmn.io -->
<!DOCTYPE svg PUBLIC "-//W3C//DTD SVG 1.1//EN" "http://www.w3.org/Graphics/SVG/1.1/DTD/svg11.dtd">
<svg xmlns="http://www.w3.org/2000/svg" xmlns:xlink="http://www.w3.org/1999/xlink" width="332" height="62" viewBox="139 189 332 62" version="1.1"><defs><marker id="sequenceflow-end-white-black-5dzq5lbi42ythoyxnihmg414s" viewBox="0 0 20 20" refX="11" refY="10" markerWidth="10" markerHeight="10" orient="auto"><path d="M 1 5 L 11 10 L 1 15 Z" style="fill: black; stroke-width: 1px; stroke-linecap: round; stroke-dasharray: 10000px, 1px; stroke: black;"/></marker></defs><g class="djs-group"><g class="djs-element djs-shape" data-element-id="Gateway_1i8ehtm" transform="matrix(1, 0, 0, 1, 145, 195)" style="display: block;"><g class="djs-visual"><polygon points="25,0 50,25 25,50 0,25" style="stroke: black; stroke-width: 2px; fill: white; fill-opacity: 0.95;"/><path d="m 16,15 7.42857142857143,9.714285714285715 -7.42857142857143,9.714285714285715 3.428571428571429,0 5.714285714285715,-7.464228571428572 5.714285714285715,7.464228571428572 3.428571428571429,0 -7.42857142857143,-9.714285714285715 7.42857142857143,-9.714285714285715 -3.428571428571429,0 -5.714285714285715,7.464228571428572 -5.714285714285715,-7.464228571428572 -3.428571428571429,0 z" style="fill: black; stroke-width: 1px; stroke: black;"/></g><rect style="fill: none; stroke-opacity: 0; stroke: white; stroke-width: 15px;" class="djs-hit djs-hit-all" x="0" y="0" width="50" height="50"/><rect x="-6" y="-6" width="62" height="62" style="fill: none;" class="djs-outline"/></g></g><g class="djs-group"><g class="djs-element djs-shape" data-element-id="Gateway_19e8hjd" transform="matrix(1, 0, 0, 1, 235, 195)" style="display: block;"><g class="djs-visual"><polygon points="25,0 50,25 25,50 0,25" style="stroke: black; stroke-width: 2px; fill: white; fill-opacity: 0.95;"/><path d="m 23,10 0,12.5 -12.5,0 0,5 12.5,0 0,12.5 5,0 0,-12.5 12.5,0 0,-5 -12.5,0 0,-12.5 -5,0 z" style="fill: black; stroke-width: 1px; stroke: black;"/></g><rect style="fill: none; stroke-opacity: 0; stroke: white; stroke-width: 15px;" class="djs-hit djs-hit-all" x="0" y="0" width="50" height="50"/><rect x="-6" y="-6" width="62" height="62" style="fill: none;" class="djs-outline"/></g></g><g class="djs-group"><g class="djs-element djs-shape" data-element-id="Gateway_0t1rxgb" transform="matrix(1, 0, 0, 1, 325, 195)" style="display: block;"><g class="djs-visual"><polygon points="25,0 50,25 25,50 0,25" style="stroke: black; stroke-width: 2px; fill: white; fill-opacity: 0.95;"/><circle cx="25" cy="25" r="13" style="stroke: black; stroke-width: 2.5px; fill: white;"/></g><rect style="fill: none; stroke-opacity: 0; stroke: white; stroke-width: 15px;" class="djs-hit djs-hit-all" x="0" y="0" width="50" height="50"/><rect x="-6" y="-6" width="62" height="62" style="fill: none;" class="djs-outline"/></g></g><g class="djs-group"><g class="djs-element djs-shape" data-element-id="Gateway_0u7gncx" transform="matrix(1, 0, 0, 1, 415, 195)" style="display: block;"><g class="djs-visual"><polygon points="25,0 50,25 25,50 0,25" style="stroke: black; stroke-width: 2px; fill: white; fill-opacity: 0.95;"/><circle cx="25" cy="25" r="15" style="stroke: black; stroke-width: 1px; fill: none;"/><circle cx="25" cy="25" r="12" style="stroke: black; stroke-width: 1px; fill: none;"/><path d="m 18,22 7.363636363636364,-4.909090909090909 7.363636363636364,4.909090909090909 -2.4545454545454546,9.818181818181818 -9.818181818181818,0 z" style="fill: none; stroke-width: 2px; stroke: black;"/></g><rect style="fill: none; stroke-opacity: 0; stroke: white; stroke-width: 15px;" class="djs-hit djs-hit-all" x="0" y="0" width="50" height="50"/><rect x="-6" y="-6" width="62" height="62" style="fill: none;" class="djs-outline"/></g></g></svg>