<?xml version="1.0" encoding="utf-8"?>
<!-- created with bpmn-js / http://bpmn.io -->
<!DOCTYPE svg PUBLIC "-//W3C//DTD SVG 1.1//EN" "http://www.w3.org/Graphics/SVG/1.1/DTD/svg11.dtd">
<svg xmlns="http://www.w3.org/2000/svg" xmlns:xlink="http://www.w3.org/1999/xlink" width="458" height="92" viewBox="146 74 458 92" version="1.1"><defs><marker id="sequenceflow-end-white-black-b3yc3nlhycvudu2qia9u8cwhq" viewBox="0 0 20 20" refX="11" refY="10" markerWidth="10" markerHeight="10" orient="auto"><path d="M 1 5 L 11 10 L 1 15 Z" style="fill: black; stroke-width: 1px; stroke-linecap: round; stroke-dasharray: 10000px, 1px; stroke: black;"/></marker></defs><g class="djs-group"><g class="djs-element djs-connection" data-element-id="Flow_0sef37z" style="display: block;"><g class="djs-visual"><path d="m  188,120L240,120 " style="fill: none; stroke-width: 2px; stroke: black; stroke-linejoin: round; marker-end: url('#sequenceflow-end-white-black-b3yc3nlhycvudu2qia9u8cwhq');"/></g><polyline points="188,120 240,120 " style="fill: none; stroke-opacity: 0; stroke: white; stroke-width: 15px;" class="djs-hit djs-hit-stroke"/><rect x="182" y="114" width="64" height="12" style="fill: none;" class="djs-outline"/></g></g><g class="djs-group"><g class="djs-element djs-connection" data-element-id="Flow_09ck6g1" style="display: block;"><g class="djs-visual"><path d="m  340,120L400,120 " style="fill: none; stroke-width: 2px; stroke: black; stroke-linejoin: round; marker-end: url('#sequenceflow-end-white-black-b3yc3nlhycvudu2qia9u8cwhq');"/></g><polyline points="340,120 400,120 " style="fill: none; stroke-opacity: 0; stroke: white; stroke-width: 15px;" class="djs-hit djs-hit-stroke"/><rect x="334" y="114" width="72" height="12" style="fill: none;" class="djs-outline"/></g></g><g class="djs-group"><g class="djs-element djs-connection" data-element-id="Flow_0ym21vy" style="display: block;"><g class="djs-visual"><path d="m  500,120L562,120 " style="fill: none; stroke-width: 2px; stroke: black; stroke-linejoin: round; marker-end: url('#sequenceflow-end-white-black-b3yc3nlhycvudu2qia9u8cwhq');"/></g><polyline points="500,120 562,120 " style="fill: none; stroke-opacity: 0; stroke: white; stroke-width: 15px;" class="djs-hit djs-hit-stroke"/><rect x="494" y="114" width="74" height="12" style="fill: none;" class="djs-outline"/></g></g><g class="djs-group"><g class="djs-element djs-shape" data-element-id="StartEvent_0a7vjto" transform="matrix(1, 0, 0, 1, 152, 102)" style="display: block;"><g class="djs-visual"><circle cx="18" cy="18" r="18" style="stroke: black; stroke-width: 2px; fill: white; fill-opacity: 0.95;"/></g><rect style="fill: none; stroke-opacity: 0; stroke: white; stroke-width: 15px;" class="djs-hit djs-hit-all" x="0" y="0" width="36" height="36"/><rect x="-6" y="-6" width="48" height="48" style="fill: none;" class="djs-outline"/></g></g><g class="djs-group"><g class="djs-element djs-shape" data-element-id="Activity_0q1rnux" transform="matrix(1, 0, 0, 1, 240, 80)" style="display: block;"><g class="djs-visual"><rect x="0" y="0" width="100" height="80" rx="10" ry="10" style="stroke: black; stroke-width: 2px; fill: white; fill-opacity: 0.95;"/><text style="font-family: Arial, sans-serif; font-size: 12px; font-weight: normal; fill: black;" lineHeight="1.2" class="djs-label"><tspan x="33.33333396911621" y="43.599999999999994">Action</tspan></text><path d="m 15,20 c 9.966553,-6.27276 -8.000926,-7.91932 2.968968,-14.938 l -8.802728,0 c -10.969894,7.01868 6.997585,8.66524 -2.968967,14.938 z m -7,-12 l 5,0 m -4.5,3 l 4.5,0 m -3,3 l 5,0m -4,3 l 5,0" style="fill: none; stroke-width: 1px; stroke: black;"/></g><rect style="fill: none; stroke-opacity: 0; stroke: white; stroke-width: 15px;" class="djs-hit djs-hit-all" x="0" y="0" width="100" height="80"/><rect x="-6" y="-6" width="112" height="92" style="fill: none;" class="djs-outline"/></g></g><g class="djs-group"><g class="djs-element djs-shape" data-element-id="Activity_0hj4xfx" transform="matrix(1, 0, 0, 1, 400, 80)" style="display: block;"><g class="djs-visual"><rect x="0" y="0" width="100" height="80" rx="10" ry="10" style="stroke: black; stroke-width: 2px; fill: white; fill-opacity: 0.95;"/><text style="font-family: Arial, sans-serif; font-size: 12px; font-weight: normal; fill: black;" lineHeight="1.2" class="djs-label"><tspan x="37.666666984558105" y="43.599999999999994">Task</tspan></text><path d="m 15,12 c 0.909,-0.845 1.594,-2.049 1.594,-3.385 0,-2.554 -1.805,-4.62199999 -4.357,-4.62199999 -2.55199998,0 -4.28799998,2.06799999 -4.28799998,4.62199999 0,1.348 0.974,2.562 1.89599998,3.405 -0.52899998,0.187 -5.669,2.097 -5.794,4.7560005 v 6.718 h 17 v -6.718 c 0,-2.2980005 -5.5279996,-4.5950005 -6.0509996,-4.7760005 zm -8,6 l 0,5.5 m 11,0 l 0,-5" style="fill: white; stroke-width: 0.5px; stroke: black;"/><path d="m 15,12 m 2.162,1.009 c 0,2.4470005 -2.158,4.4310005 -4.821,4.4310005 -2.66499998,0 -4.822,-1.981 -4.822,-4.4310005 " style="fill: white; stroke-width: 0.5px; stroke: black;"/><path d="m 15,12 m -6.9,-3.80 c 0,0 2.25099998,-2.358 4.27399998,-1.177 2.024,1.181 4.221,1.537 4.124,0.965 -0.098,-0.57 -0.117,-3.79099999 -4.191,-4.13599999 -3.57499998,0.001 -4.20799998,3.36699999 -4.20699998,4.34799999 z" style="fill: black; stroke-width: 0.5px; stroke: black;"/></g><rect style="fill: none; stroke-opacity: 0; stroke: white; stroke-width: 15px;" class="djs-hit djs-hit-all" x="0" y="0" width="100" height="80"/><rect x="-6" y="-6" width="112" height="92" style="fill: none;" class="djs-outline"/></g></g><g class="djs-group"><g class="djs-element djs-shape selected" data-element-id="Event_1ahb865" transform="matrix(1, 0, 0, 1, 562, 102)" style="display: block;"><g class="djs-visual"><circle cx="18" cy="18" r="18" style="stroke: black; stroke-width: 4px; fill: white; fill-opacity: 0.95;"/></g><rect style="fill: none; stroke-opacity: 0; stroke: white; stroke-width: 15px;" class="djs-hit djs-hit-all" x="0" y="0" width="36" height="36"/><rect x="-6" y="-6" width="48" height="48" style="fill: none;" class="djs-outline"/></g></g></svg>