<?xml version="1.0" encoding="utf-8"?>
<!-- created with bpmn-js / http://bpmn.io -->
<!DOCTYPE svg PUBLIC "-//W3C//DTD SVG 1.1//EN" "http://www.w3.org/Graphics/SVG/1.1/DTD/svg11.dtd">
<svg xmlns="http://www.w3.org/2000/svg" xmlns:xlink="http://www.w3.org/1999/xlink" width="687" height="533" viewBox="27 44 687 533" version="1.1"><defs><marker id="sequenceflow-end-white-black-e8motw6c1pi9zxf6dicbt0pze" viewBox="0 0 20 20" refX="11" refY="10" markerWidth="10" markerHeight="10" orient="auto"><path d="M 1 5 L 11 10 L 1 15 Z" style="fill: black; stroke-width: 1px; stroke-linecap: round; stroke-dasharray: 10000px, 1px; stroke: black;"/></marker></defs><g class="djs-group"><g class="djs-element djs-connection" data-element-id="SequenceFlow_1djd8rz" style="display: block;"><g class="djs-visual"><path d="m  234,323L185,323 L203,323 " style="fill: none; stroke-width: 2px; stroke: black; stroke-linejoin: round; marker-end: url('#sequenceflow-end-white-black-e8motw6c1pi9zxf6dicbt0pze');"/></g><polyline points="234,323 185,323 203,323 " style="fill: none; stroke-opacity: 0; stroke: white; stroke-width: 15px;" class="djs-hit djs-hit-stroke"/><rect x="179" y="317" width="61" height="12" style="fill: none;" class="djs-outline"/></g></g><g class="djs-group"><g class="djs-element djs-connection" data-element-id="SequenceFlow_15s6p0o" style="display: block;"><g class="djs-visual"><path d="m  316,425L316,365 " style="fill: none; stroke-width: 2px; stroke: black; stroke-linejoin: round; marker-end: url('#sequenceflow-end-white-black-e8motw6c1pi9zxf6dicbt0pze');"/></g><polyline points="316,425 316,365 " style="fill: none; stroke-opacity: 0; stroke: white; stroke-width: 15px;" class="djs-hit djs-hit-stroke"/><rect x="310" y="359" width="12" height="72" style="fill: none;" class="djs-outline"/></g></g><g class="djs-group"><g class="djs-element djs-connection" data-element-id="SequenceFlow_136g51w" style="display: block;"><g class="djs-visual"><path d="m  282,365L282,425 " style="fill: none; stroke-width: 2px; stroke: black; stroke-linejoin: round; marker-end: url('#sequenceflow-end-white-black-e8motw6c1pi9zxf6dicbt0pze');"/></g><polyline points="282,365 282,425 " style="fill: none; stroke-opacity: 0; stroke: white; stroke-width: 15px;" class="djs-hit djs-hit-stroke"/><rect x="276" y="359" width="12" height="72" style="fill: none;" class="djs-outline"/></g></g><g class="djs-group"><g class="djs-element djs-connection" data-element-id="SequenceFlow_0se25lf" style="display: block;"><g class="djs-visual"><path d="m  302,242L302,285 " style="fill: none; stroke-width: 2px; stroke: black; stroke-linejoin: round; marker-end: url('#sequenceflow-end-white-black-e8motw6c1pi9zxf6dicbt0pze');"/></g><polyline points="302,242 302,285 " style="fill: none; stroke-opacity: 0; stroke: white; stroke-width: 15px;" class="djs-hit djs-hit-stroke"/><rect x="296" y="236" width="12" height="55" style="fill: none;" class="djs-outline"/></g></g><g class="djs-group"><g class="djs-element djs-connection" data-element-id="SequenceFlow_18i90lf" style="display: block;"><g class="djs-visual"><path d="m  352,202L388,202 " style="fill: none; stroke-width: 2px; stroke: black; stroke-linejoin: round; marker-end: url('#sequenceflow-end-white-black-e8motw6c1pi9zxf6dicbt0pze');"/></g><polyline points="352,202 388,202 " style="fill: none; stroke-opacity: 0; stroke: white; stroke-width: 15px;" class="djs-hit djs-hit-stroke"/><rect x="346" y="196" width="48" height="12" style="fill: none;" class="djs-outline"/></g></g><g class="djs-group"><g class="djs-element djs-connection" data-element-id="SequenceFlow_1ri0a39" style="display: block;"><g class="djs-visual"><path d="m  570,202L608,202 " style="fill: none; stroke-width: 2px; stroke: black; stroke-linejoin: round; marker-end: url('#sequenceflow-end-white-black-e8motw6c1pi9zxf6dicbt0pze');"/></g><polyline points="570,202 608,202 " style="fill: none; stroke-opacity: 0; stroke: white; stroke-width: 15px;" class="djs-hit djs-hit-stroke"/><rect x="564" y="196" width="50" height="12" style="fill: none;" class="djs-outline"/></g></g><g class="djs-group"><g class="djs-element djs-connection" data-element-id="SequenceFlow_1fc0c83" style="display: block;"><g class="djs-visual"><path d="m  488,202L534,202 " style="fill: none; stroke-width: 2px; stroke: black; stroke-linejoin: round; marker-end: url('#sequenceflow-end-white-black-e8motw6c1pi9zxf6dicbt0pze');"/></g><polyline points="488,202 534,202 " style="fill: none; stroke-opacity: 0; stroke: white; stroke-width: 15px;" class="djs-hit djs-hit-stroke"/><rect x="482" y="196" width="58" height="12" style="fill: none;" class="djs-outline"/></g></g><g class="djs-group"><g class="djs-element djs-connection" data-element-id="SequenceFlow_0m98yw9" style="display: block;"><g class="djs-visual"><path d="m  658,162L658,124 L169,124 L169,162 " style="fill: none; stroke-width: 2px; stroke: black; stroke-linejoin: round; marker-end: url('#sequenceflow-end-white-black-e8motw6c1pi9zxf6dicbt0pze');"/></g><polyline points="658,162 658,124 169,124 169,162 " style="fill: none; stroke-opacity: 0; stroke: white; stroke-width: 15px;" class="djs-hit djs-hit-stroke"/><rect x="163" y="118" width="501" height="50" style="fill: none;" class="djs-outline"/></g></g><g class="djs-group"><g class="djs-element djs-connection" data-element-id="SequenceFlow_13b4gra" style="display: block;"><g class="djs-visual"><path d="m  219,202L252,202 " style="fill: none; stroke-width: 2px; stroke: black; stroke-linejoin: round; marker-end: url('#sequenceflow-end-white-black-e8motw6c1pi9zxf6dicbt0pze');"/></g><polyline points="219,202 252,202 " style="fill: none; stroke-opacity: 0; stroke: white; stroke-width: 15px;" class="djs-hit djs-hit-stroke"/><rect x="213" y="196" width="45" height="12" style="fill: none;" class="djs-outline"/></g></g><g class="djs-group"><g class="djs-element djs-connection" data-element-id="SequenceFlow_1ryexwf" style="display: block;"><g class="djs-visual"><path d="m  82,202L119,202 " style="fill: none; stroke-width: 2px; stroke: black; stroke-linejoin: round; marker-end: url('#sequenceflow-end-white-black-e8motw6c1pi9zxf6dicbt0pze');"/></g><polyline points="82,202 119,202 " style="fill: none; stroke-opacity: 0; stroke: white; stroke-width: 15px;" class="djs-hit djs-hit-stroke"/><rect x="76" y="196" width="49" height="12" style="fill: none;" class="djs-outline"/></g></g><g class="djs-group"><g class="djs-element djs-shape" data-element-id="StartEvent_1d2xg0h" transform="matrix(1, 0, 0, 1, 46, 184)" style="display: block;"><g class="djs-visual"><circle cx="18" cy="18" r="18" style="stroke: black; stroke-width: 2px; fill: white; fill-opacity: 0.95;"/></g><rect style="fill: none; stroke-opacity: 0; stroke: white; stroke-width: 15px;" class="djs-hit djs-hit-all" x="0" y="0" width="36" height="36"/><rect x="-6" y="-6" width="48" height="48" style="fill: none;" class="djs-outline"/></g></g><g class="djs-group"><g class="djs-element djs-shape" data-element-id="StartEvent_1d2xg0h_label" transform="matrix(1, 0, 0, 1, 33, 227)" style="display: block;"><g class="djs-visual"><text style="font-family: Arial, sans-serif; font-size: 11px; font-weight: normal; fill: black;" lineHeight="1.2" class="djs-label"><tspan x="0" y="9.899999999999999">Http Session </tspan><tspan x="13.44999885559082" y="23.099999999999998">Started</tspan></text></g><rect style="fill: none; stroke-opacity: 0; stroke: white; stroke-width: 15px;" class="djs-hit djs-hit-all" x="0" y="0" width="63" height="27"/><rect x="-6" y="-6" width="75" height="39" style="fill: none;" class="djs-outline"/></g></g><g class="djs-group"><g class="djs-element djs-shape" data-element-id="Task_0js39te" transform="matrix(1, 0, 0, 1, 119, 162)" style="display: block;"><g class="djs-visual"><rect x="0" y="0" width="100" height="80" rx="10" ry="10" style="stroke: black; stroke-width: 2px; fill: white; fill-opacity: 0.95;"/><text style="font-family: Arial, sans-serif; font-size: 12px; font-weight: normal; fill: black;" lineHeight="1.2" class="djs-label"><tspan x="37.31999969482422" y="43.599999999999994">login</tspan></text><path d="m 15,12 c 0.909,-0.845 1.594,-2.049 1.594,-3.385 0,-2.554 -1.805,-4.62199999 -4.357,-4.62199999 -2.55199998,0 -4.28799998,2.06799999 -4.28799998,4.62199999 0,1.348 0.974,2.562 1.89599998,3.405 -0.52899998,0.187 -5.669,2.097 -5.794,4.7560005 v 6.718 h 17 v -6.718 c 0,-2.2980005 -5.5279996,-4.5950005 -6.0509996,-4.7760005 zm -8,6 l 0,5.5 m 11,0 l 0,-5" style="fill: white; stroke-width: 0.5px; stroke: black;"/><path d="m 15,12 m 2.162,1.009 c 0,2.4470005 -2.158,4.4310005 -4.821,4.4310005 -2.66499998,0 -4.822,-1.981 -4.822,-4.4310005 " style="fill: white; stroke-width: 0.5px; stroke: black;"/><path d="m 15,12 m -6.9,-3.80 c 0,0 2.25099998,-2.358 4.27399998,-1.177 2.024,1.181 4.221,1.537 4.124,0.965 -0.098,-0.57 -0.117,-3.79099999 -4.191,-4.13599999 -3.57499998,0.001 -4.20799998,3.36699999 -4.20699998,4.34799999 z" style="fill: black; stroke-width: 0.5px; stroke: black;"/></g><rect style="fill: none; stroke-opacity: 0; stroke: white; stroke-width: 15px;" class="djs-hit djs-hit-all" x="0" y="0" width="100" height="80"/><rect x="-6" y="-6" width="112" height="92" style="fill: none;" class="djs-outline"/></g></g><g class="djs-group"><g class="djs-element djs-shape" data-element-id="Task_181ez9c" transform="matrix(1, 0, 0, 1, 252, 162)" style="display: block;"><g class="djs-visual"><rect x="0" y="0" width="100" height="80" rx="10" ry="10" style="stroke: black; stroke-width: 2px; fill: white; fill-opacity: 0.95;"/><text style="font-family: Arial, sans-serif; font-size: 12px; font-weight: normal; fill: black;" lineHeight="1.2" class="djs-label"><tspan x="6.960002899169922" y="36.4">Remember user </tspan><tspan x="40.31999969482422" y="50.8">info</tspan></text><path d="m 15,20 c 9.966553,-6.27276 -8.000926,-7.91932 2.968968,-14.938 l -8.802728,0 c -10.969894,7.01868 6.997585,8.66524 -2.968967,14.938 z m -7,-12 l 5,0 m -4.5,3 l 4.5,0 m -3,3 l 5,0m -4,3 l 5,0" style="fill: none; stroke-width: 1px; stroke: black;"/></g><rect style="fill: none; stroke-opacity: 0; stroke: white; stroke-width: 15px;" class="djs-hit djs-hit-all" x="0" y="0" width="100" height="80"/><rect x="-6" y="-6" width="112" height="92" style="fill: none;" class="djs-outline"/></g></g><g class="djs-group"><g class="djs-element djs-shape" data-element-id="Task_16rb3rf" transform="matrix(1, 0, 0, 1, 388, 162)" style="display: block;"><g class="djs-visual"><rect x="0" y="0" width="100" height="80" rx="10" ry="10" style="stroke: black; stroke-width: 2px; fill: white; fill-opacity: 0.95;"/><text style="font-family: Arial, sans-serif; font-size: 12px; font-weight: normal; fill: black;" lineHeight="1.2" class="djs-label"><tspan x="33.63999938964844" y="43.599999999999994">logout</tspan></text><path d="m 15,12 c 0.909,-0.845 1.594,-2.049 1.594,-3.385 0,-2.554 -1.805,-4.62199999 -4.357,-4.62199999 -2.55199998,0 -4.28799998,2.06799999 -4.28799998,4.62199999 0,1.348 0.974,2.562 1.89599998,3.405 -0.52899998,0.187 -5.669,2.097 -5.794,4.7560005 v 6.718 h 17 v -6.718 c 0,-2.2980005 -5.5279996,-4.5950005 -6.0509996,-4.7760005 zm -8,6 l 0,5.5 m 11,0 l 0,-5" style="fill: white; stroke-width: 0.5px; stroke: black;"/><path d="m 15,12 m 2.162,1.009 c 0,2.4470005 -2.158,4.4310005 -4.821,4.4310005 -2.66499998,0 -4.822,-1.981 -4.822,-4.4310005 " style="fill: white; stroke-width: 0.5px; stroke: black;"/><path d="m 15,12 m -6.9,-3.80 c 0,0 2.25099998,-2.358 4.27399998,-1.177 2.024,1.181 4.221,1.537 4.124,0.965 -0.098,-0.57 -0.117,-3.79099999 -4.191,-4.13599999 -3.57499998,0.001 -4.20799998,3.36699999 -4.20699998,4.34799999 z" style="fill: black; stroke-width: 0.5px; stroke: black;"/></g><rect style="fill: none; stroke-opacity: 0; stroke: white; stroke-width: 15px;" class="djs-hit djs-hit-all" x="0" y="0" width="100" height="80"/><rect x="-6" y="-6" width="112" height="92" style="fill: none;" class="djs-outline"/></g></g><g class="djs-group"><g class="djs-element djs-shape" data-element-id="Task_05sdr8w" transform="matrix(1, 0, 0, 1, 608, 162)" style="display: block;"><g class="djs-visual"><rect x="0" y="0" width="100" height="80" rx="10" ry="10" style="stroke: black; stroke-width: 2px; fill: white; fill-opacity: 0.95;"/><text style="font-family: Arial, sans-serif; font-size: 12px; font-weight: normal; fill: black;" lineHeight="1.2" class="djs-label"><tspan x="10.619998931884766" y="36.4">Clear user and </tspan><tspan x="31.639999389648438" y="50.8">groups</tspan></text><path d="m 15,20 c 9.966553,-6.27276 -8.000926,-7.91932 2.968968,-14.938 l -8.802728,0 c -10.969894,7.01868 6.997585,8.66524 -2.968967,14.938 z m -7,-12 l 5,0 m -4.5,3 l 4.5,0 m -3,3 l 5,0m -4,3 l 5,0" style="fill: none; stroke-width: 1px; stroke: black;"/></g><rect style="fill: none; stroke-opacity: 0; stroke: white; stroke-width: 15px;" class="djs-hit djs-hit-all" x="0" y="0" width="100" height="80"/><rect x="-6" y="-6" width="112" height="92" style="fill: none;" class="djs-outline"/></g></g><g class="djs-group"><g class="djs-element djs-shape" data-element-id="SubProcess_0cintww" transform="matrix(1, 0, 0, 1, 411, 281)" style="display: block;"><g class="djs-visual"><rect x="0" y="0" width="140" height="231" rx="10" ry="10" style="stroke: black; stroke-width: 2px; fill: white; fill-opacity: 0.95; stroke-dasharray: 1px, 2px;"/><text style="font-family: Arial, sans-serif; font-size: 12px; font-weight: normal; fill: black;" lineHeight="1.2" class="djs-label"><tspan x="37.29999923706055" y="15.799999999999999">End session</tspan></text></g><rect style="fill: none; stroke-opacity: 0; stroke: white; stroke-width: 15px;" class="djs-hit djs-hit-click-stroke" x="0" y="0" width="140" height="231"/><rect style="fill: none; stroke-opacity: 0; stroke: white; stroke-width: 15px;" class="djs-hit djs-hit-all" x="0" y="0" width="140" height="30"/><rect x="-6" y="-6" width="152" height="243" style="fill: none;" class="djs-outline"/></g><g class="djs-children"><g class="djs-group"><g class="djs-element djs-connection" data-element-id="SequenceFlow_07vsj3s" style="display: block;"><g class="djs-visual"><path d="m  482,390L482,445 " style="fill: none; stroke-width: 2px; stroke: black; stroke-linejoin: round; marker-end: url('#sequenceflow-end-white-black-e8motw6c1pi9zxf6dicbt0pze');"/></g><polyline points="482,390 482,445 " style="fill: none; stroke-opacity: 0; stroke: white; stroke-width: 15px;" class="djs-hit djs-hit-stroke"/><rect x="476" y="384" width="12" height="67" style="fill: none;" class="djs-outline"/></g></g><g class="djs-group"><g class="djs-element djs-shape" data-element-id="IntermediateThrowEvent_0h9bl19" transform="matrix(1, 0, 0, 1, 464, 354)" style="display: block;"><g class="djs-visual"><circle cx="18" cy="18" r="18" style="stroke: black; stroke-width: 1px; fill: white; fill-opacity: 0.95;"/><circle cx="18" cy="18" r="15" style="stroke: black; stroke-width: 1px; fill: none;"/><path d="M 18,7.2 l 9,16.2 l -18,0 Z" style="fill: none; stroke-width: 1px; stroke: black;"/></g><rect style="fill: none; stroke-opacity: 0; stroke: white; stroke-width: 15px;" class="djs-hit djs-hit-all" x="0" y="0" width="36" height="36"/><rect x="-6" y="-6" width="48" height="48" style="fill: none;" class="djs-outline"/></g></g><g class="djs-group"><g class="djs-element djs-shape" data-element-id="IntermediateThrowEvent_0h9bl19_label" transform="matrix(1, 0, 0, 1, 451, 317)" style="display: block;"><g class="djs-visual"><text style="font-family: Arial, sans-serif; font-size: 11px; font-weight: normal; fill: black;" lineHeight="1.2" class="djs-label"><tspan x="0" y="9.899999999999999">Http Session </tspan><tspan x="15.280000686645508" y="23.099999999999998">Ended</tspan></text></g><rect style="fill: none; stroke-opacity: 0; stroke: white; stroke-width: 15px;" class="djs-hit djs-hit-all" x="0" y="0" width="63" height="27"/><rect x="-6" y="-6" width="75" height="39" style="fill: none;" class="djs-outline"/></g></g><g class="djs-group"><g class="djs-element djs-shape" data-element-id="EndEvent_1ya1bz7" transform="matrix(1, 0, 0, 1, 464, 445)" style="display: block;"><g class="djs-visual"><circle cx="18" cy="18" r="18" style="stroke: black; stroke-width: 4px; fill: white; fill-opacity: 0.95;"/><circle cx="18" cy="18" r="10" style="stroke: black; stroke-width: 4px; fill: black;"/></g><rect style="fill: none; stroke-opacity: 0; stroke: white; stroke-width: 15px;" class="djs-hit djs-hit-all" x="0" y="0" width="36" height="36"/><rect x="-6" y="-6" width="48" height="48" style="fill: none;" class="djs-outline"/></g></g></g></g><g class="djs-group"><g class="djs-element djs-shape" data-element-id="IntermediateThrowEvent_0quc2xf" transform="matrix(1, 0, 0, 1, 534, 184)" style="display: block;"><g class="djs-visual"><circle cx="18" cy="18" r="18" style="stroke: black; stroke-width: 1px; fill: white; fill-opacity: 0.95;"/><circle cx="18" cy="18" r="15" style="stroke: black; stroke-width: 1px; fill: none;"/><path d="M 18,7.2 l 8,20 l -8,-7 l -8,7 Z" style="fill: black; stroke-width: 1px; stroke: black;"/></g><rect style="fill: none; stroke-opacity: 0; stroke: white; stroke-width: 15px;" class="djs-hit djs-hit-all" x="0" y="0" width="36" height="36"/><rect x="-6" y="-6" width="48" height="48" style="fill: none;" class="djs-outline"/></g></g><g class="djs-group"><g class="djs-element djs-shape" data-element-id="IntermediateThrowEvent_0quc2xf_label" transform="matrix(1, 0, 0, 1, 516, 227)" style="display: block;"><g class="djs-visual"><text style="font-family: Arial, sans-serif; font-size: 11px; font-weight: normal; fill: black;" lineHeight="1.2" class="djs-label"><tspan x="0" y="9.899999999999999">Logout internal </tspan><tspan x="22.030000686645508" y="23.099999999999998">signal</tspan></text></g><rect style="fill: none; stroke-opacity: 0; stroke: white; stroke-width: 15px;" class="djs-hit djs-hit-all" x="0" y="0" width="73" height="27"/><rect x="-6" y="-6" width="85" height="39" style="fill: none;" class="djs-outline"/></g></g><g class="djs-group"><g class="djs-element djs-shape" data-element-id="Task_113kfqn" transform="matrix(1, 0, 0, 1, 252, 285)" style="display: block;"><g class="djs-visual"><rect x="0" y="0" width="100" height="80" rx="10" ry="10" style="stroke: black; stroke-width: 2px; fill: white; fill-opacity: 0.95;"/><text style="font-family: Arial, sans-serif; font-size: 12px; font-weight: normal; fill: black;" lineHeight="1.2" class="djs-label"><tspan x="15.630001068115234" y="43.599999999999994">modelsource</tspan></text><path d="m 15,12 c 0.909,-0.845 1.594,-2.049 1.594,-3.385 0,-2.554 -1.805,-4.62199999 -4.357,-4.62199999 -2.55199998,0 -4.28799998,2.06799999 -4.28799998,4.62199999 0,1.348 0.974,2.562 1.89599998,3.405 -0.52899998,0.187 -5.669,2.097 -5.794,4.7560005 v 6.718 h 17 v -6.718 c 0,-2.2980005 -5.5279996,-4.5950005 -6.0509996,-4.7760005 zm -8,6 l 0,5.5 m 11,0 l 0,-5" style="fill: white; stroke-width: 0.5px; stroke: black;"/><path d="m 15,12 m 2.162,1.009 c 0,2.4470005 -2.158,4.4310005 -4.821,4.4310005 -2.66499998,0 -4.822,-1.981 -4.822,-4.4310005 " style="fill: white; stroke-width: 0.5px; stroke: black;"/><path d="m 15,12 m -6.9,-3.80 c 0,0 2.25099998,-2.358 4.27399998,-1.177 2.024,1.181 4.221,1.537 4.124,0.965 -0.098,-0.57 -0.117,-3.79099999 -4.191,-4.13599999 -3.57499998,0.001 -4.20799998,3.36699999 -4.20699998,4.34799999 z" style="fill: black; stroke-width: 0.5px; stroke: black;"/></g><rect style="fill: none; stroke-opacity: 0; stroke: white; stroke-width: 15px;" class="djs-hit djs-hit-all" x="0" y="0" width="100" height="80"/><rect x="-6" y="-6" width="112" height="92" style="fill: none;" class="djs-outline"/></g></g><g class="djs-group"><g class="djs-element djs-shape" data-element-id="Task_0keqd2a" transform="matrix(1, 0, 0, 1, 252, 425)" style="display: block;"><g class="djs-visual"><rect x="0" y="0" width="100" height="80" rx="10" ry="10" style="stroke: black; stroke-width: 2px; fill: white; fill-opacity: 0.95;"/><text style="font-family: Arial, sans-serif; font-size: 12px; font-weight: normal; fill: black;" lineHeight="1.2" class="djs-label"><tspan x="31.31999969482422" y="43.599999999999994">Deploy</tspan></text><path d="m 15,20 c 9.966553,-6.27276 -8.000926,-7.91932 2.968968,-14.938 l -8.802728,0 c -10.969894,7.01868 6.997585,8.66524 -2.968967,14.938 z m -7,-12 l 5,0 m -4.5,3 l 4.5,0 m -3,3 l 5,0m -4,3 l 5,0" style="fill: none; stroke-width: 1px; stroke: black;"/></g><rect style="fill: none; stroke-opacity: 0; stroke: white; stroke-width: 15px;" class="djs-hit djs-hit-all" x="0" y="0" width="100" height="80"/><rect x="-6" y="-6" width="112" height="92" style="fill: none;" class="djs-outline"/></g></g><g class="djs-group"><g class="djs-element djs-shape" data-element-id="EndEvent_0mrajx6" transform="matrix(1, 0, 0, 1, 167, 305)" style="display: block;"><g class="djs-visual"><circle cx="18" cy="18" r="18" style="stroke: black; stroke-width: 4px; fill: white; fill-opacity: 0.95;"/></g><rect style="fill: none; stroke-opacity: 0; stroke: white; stroke-width: 15px;" class="djs-hit djs-hit-all" x="0" y="0" width="36" height="36"/><rect x="-6" y="-6" width="48" height="48" style="fill: none;" class="djs-outline"/></g></g><g class="djs-group"><g class="djs-element djs-shape" data-element-id="TextAnnotation_1je9sj1" transform="matrix(1, 0, 0, 1, 370, 50)" style="display: block;"><g class="djs-visual"><rect x="0" y="0" width="270" height="55" rx="0" ry="0" style="stroke: none; stroke-width: 2px; fill: none;"/><path d="m 0, 0 m 10,0 l -10,0 l 0,55 l 10,0" style="fill: none; stroke-width: 2px; stroke: black;"/><text style="font-family: Arial, sans-serif; font-size: 12px; font-weight: normal; fill: black;" lineHeight="1.2" class="djs-label"><tspan x="5" y="15.799999999999999">The permissions array may be loaded from </tspan><tspan x="5" y="30.199999999999996">LDAP. It is kept in a session object and can be</tspan><tspan x="5" y="44.599999999999994">checked when needed</tspan></text></g><rect style="fill: none; stroke-opacity: 0; stroke: white; stroke-width: 15px;" class="djs-hit djs-hit-all" x="0" y="0" width="270" height="55"/><rect x="-6" y="-6" width="282" height="67" style="fill: none;" class="djs-outline"/></g></g><g class="djs-group"><g class="djs-element djs-shape" data-element-id="TextAnnotation_1al7txl" transform="matrix(1, 0, 0, 1, 60, 390)" style="display: block;"><g class="djs-visual"><rect x="0" y="0" width="170" height="70" rx="0" ry="0" style="stroke: none; stroke-width: 2px; fill: none;"/><path d="m 0, 0 m 10,0 l -10,0 l 0,70 l 10,0" style="fill: none; stroke-width: 2px; stroke: black;"/><text style="font-family: Arial, sans-serif; font-size: 12px; font-weight: normal; fill: black;" lineHeight="1.2" class="djs-label"><tspan x="5" y="15.799999999999999">A service to return process </tspan><tspan x="5" y="30.199999999999996">definitions as XML. A page </tspan><tspan x="5" y="44.599999999999994">/res/process.html provides </tspan><tspan x="5" y="58.99999999999999">the process editor</tspan></text></g><rect style="fill: none; stroke-opacity: 0; stroke: white; stroke-width: 15px;" class="djs-hit djs-hit-all" x="0" y="0" width="170" height="70"/><rect x="-6" y="-6" width="182" height="82" style="fill: none;" class="djs-outline"/></g></g><g class="djs-group"><g class="djs-element djs-shape" data-element-id="TextAnnotation_1vmlxk0" transform="matrix(1, 0, 0, 1, 340, 530)" style="display: block;"><g class="djs-visual"><rect x="0" y="0" width="100" height="41" rx="0" ry="0" style="stroke: none; stroke-width: 2px; fill: none;"/><path d="m 0, 0 m 10,0 l -10,0 l 0,41 l 10,0" style="fill: none; stroke-width: 2px; stroke: black;"/><text style="font-family: Arial, sans-serif; font-size: 12px; font-weight: normal; fill: black;" lineHeight="1.2" class="djs-label"><tspan x="5" y="15.799999999999999">Deploy </tspan><tspan x="5" y="30.199999999999996">command</tspan></text></g><rect style="fill: none; stroke-opacity: 0; stroke: white; stroke-width: 15px;" class="djs-hit djs-hit-all" x="0" y="0" width="100" height="41"/><rect x="-6" y="-6" width="112" height="53" style="fill: none;" class="djs-outline"/></g></g><g class="djs-group"><g class="djs-element djs-shape" data-element-id="TextAnnotation_03g6isx" transform="matrix(1, 0, 0, 1, 220, 57)" style="display: block;"><g class="djs-visual"><rect x="0" y="0" width="100" height="41" rx="0" ry="0" style="stroke: none; stroke-width: 2px; fill: none;"/><path d="m 0, 0 m 10,0 l -10,0 l 0,41 l 10,0" style="fill: none; stroke-width: 2px; stroke: black;"/><text style="font-family: Arial, sans-serif; font-size: 12px; font-weight: normal; fill: black;" lineHeight="1.2" class="djs-label"><tspan x="5" y="15.799999999999999">Simple login </tspan><tspan x="5" y="30.199999999999996">form</tspan></text></g><rect style="fill: none; stroke-opacity: 0; stroke: white; stroke-width: 15px;" class="djs-hit djs-hit-all" x="0" y="0" width="100" height="41"/><rect x="-6" y="-6" width="112" height="53" style="fill: none;" class="djs-outline"/></g></g><g class="djs-group"><g class="djs-element djs-shape" data-element-id="BoundaryEvent_1w4ss9v" transform="matrix(1, 0, 0, 1, 234, 305)" style="display: block;"><g class="djs-visual"><circle cx="18" cy="18" r="18" style="stroke: black; stroke-width: 1px; fill: white; fill-opacity: 1;"/><circle cx="18" cy="18" r="15" style="stroke: black; stroke-width: 1px; fill: none;"/><path d="M 18,7.2 l 8,20 l -8,-7 l -8,7 Z" style="fill: none; stroke-width: 1px; stroke: black;"/></g><rect style="fill: none; stroke-opacity: 0; stroke: white; stroke-width: 15px;" class="djs-hit djs-hit-all" x="0" y="0" width="36" height="36"/><rect x="-6" y="-6" width="48" height="48" style="fill: none;" class="djs-outline"/></g></g><g class="djs-group"><g class="djs-element djs-connection" data-element-id="Association_092soqs" style="display: block;"><g class="djs-visual"><polyline points="339,162 392,105 " style="fill: none; stroke: black; stroke-width: 2px; stroke-dasharray: 0.5px, 5px; stroke-linecap: round; stroke-linejoin: round;"/></g><polyline points="339,162 392,105 " style="fill: none; stroke-opacity: 0; stroke: white; stroke-width: 15px;" class="djs-hit djs-hit-stroke"/><rect x="333" y="99" width="65" height="69" style="fill: none;" class="djs-outline"/></g></g><g class="djs-group"><g class="djs-element djs-connection" data-element-id="Association_1109bxm" style="display: block;"><g class="djs-visual"><polyline points="252,346 146,390 " style="fill: none; stroke: black; stroke-width: 2px; stroke-dasharray: 0.5px, 5px; stroke-linecap: round; stroke-linejoin: round;"/></g><polyline points="252,346 146,390 " style="fill: none; stroke-opacity: 0; stroke: white; stroke-width: 15px;" class="djs-hit djs-hit-stroke"/><rect x="140" y="340" width="118" height="56" style="fill: none;" class="djs-outline"/></g></g><g class="djs-group"><g class="djs-element djs-connection" data-element-id="Association_0usrl39" style="display: block;"><g class="djs-visual"><polyline points="346,504 374,530 " style="fill: none; stroke: black; stroke-width: 2px; stroke-dasharray: 0.5px, 5px; stroke-linecap: round; stroke-linejoin: round;"/></g><polyline points="346,504 374,530 " style="fill: none; stroke-opacity: 0; stroke: white; stroke-width: 15px;" class="djs-hit djs-hit-stroke"/><rect x="340" y="498" width="40" height="38" style="fill: none;" class="djs-outline"/></g></g><g class="djs-group"><g class="djs-element djs-connection" data-element-id="Association_0j34xqt" style="display: block;"><g class="djs-visual"><polyline points="200,162 250,98 " style="fill: none; stroke: black; stroke-width: 2px; stroke-dasharray: 0.5px, 5px; stroke-linecap: round; stroke-linejoin: round;"/></g><polyline points="200,162 250,98 " style="fill: none; stroke-opacity: 0; stroke: white; stroke-width: 15px;" class="djs-hit djs-hit-stroke"/><rect x="194" y="92" width="62" height="76" style="fill: none;" class="djs-outline"/></g></g></svg>