<?xml version="1.0" encoding="UTF-8"?>
<!DOCTYPE svg PUBLIC "-//W3C//DTD SVG 1.1//EN" "http://www.w3.org/Graphics/SVG/1.1/DTD/svg11.dtd">
<svg version="1.2" width="7.58mm" height="7.19mm" viewBox="13999 5697 758 719" preserveAspectRatio="xMidYMid" fill-rule="evenodd" stroke-width="28.222" stroke-linejoin="round" xmlns="http://www.w3.org/2000/svg" xmlns:ooo="http://xml.openoffice.org/svg/export" xmlns:xlink="http://www.w3.org/1999/xlink" xmlns:presentation="http://sun.com/xmlns/staroffice/presentation" xmlns:smil="http://www.w3.org/2001/SMIL20/" xmlns:anim="urn:oasis:names:tc:opendocument:xmlns:animation:1.0" xml:space="preserve">
 <defs class="EmbeddedBulletChars">
  <g id="bullet-char-template-57356" transform="scale(0.00048828125,-0.00048828125)">
   <path d="M 580,1141 L 1163,571 580,0 -4,571 580,1141 Z"/>
  </g>
  <g id="bullet-char-template-57354" transform="scale(0.00048828125,-0.00048828125)">
   <path d="M 8,1128 L 1137,1128 1137,0 8,0 8,1128 Z"/>
  </g>
  <g id="bullet-char-template-10146" transform="scale(0.00048828125,-0.00048828125)">
   <path d="M 174,0 L 602,739 174,1481 1456,739 174,0 Z M 1358,739 L 309,1346 659,739 1358,739 Z"/>
  </g>
  <g id="bullet-char-template-10132" transform="scale(0.00048828125,-0.00048828125)">
   <path d="M 2015,739 L 1276,0 717,0 1260,543 174,543 174,936 1260,936 717,1481 1274,1481 2015,739 Z"/>
  </g>
  <g id="bullet-char-template-10007" transform="scale(0.00048828125,-0.00048828125)">
   <path d="M 0,-2 C -7,14 -16,27 -25,37 L 356,567 C 262,823 215,952 215,954 215,979 228,992 255,992 264,992 276,990 289,987 310,991 331,999 354,1012 L 381,999 492,748 772,1049 836,1024 860,1049 C 881,1039 901,1025 922,1006 886,937 835,863 770,784 769,783 710,716 594,584 L 774,223 C 774,196 753,168 711,139 L 727,119 C 717,90 699,76 672,76 641,76 570,178 457,381 L 164,-76 C 142,-110 111,-127 72,-127 30,-127 9,-110 8,-76 1,-67 -2,-52 -2,-32 -2,-23 -1,-13 0,-2 Z"/>
  </g>
  <g id="bullet-char-template-10004" transform="scale(0.00048828125,-0.00048828125)">
   <path d="M 285,-33 C 182,-33 111,30 74,156 52,228 41,333 41,471 41,549 55,616 82,672 116,743 169,778 240,778 293,778 328,747 346,684 L 369,508 C 377,444 397,411 428,410 L 1163,1116 C 1174,1127 1196,1133 1229,1133 1271,1133 1292,1118 1292,1087 L 1292,965 C 1292,929 1282,901 1262,881 L 442,47 C 390,-6 338,-33 285,-33 Z"/>
  </g>
  <g id="bullet-char-template-9679" transform="scale(0.00048828125,-0.00048828125)">
   <path d="M 813,0 C 632,0 489,54 383,161 276,268 223,411 223,592 223,773 276,916 383,1023 489,1130 632,1184 813,1184 992,1184 1136,1130 1245,1023 1353,916 1407,772 1407,592 1407,412 1353,268 1245,161 1136,54 992,0 813,0 Z"/>
  </g>
  <g id="bullet-char-template-8226" transform="scale(0.00048828125,-0.00048828125)">
   <path d="M 346,457 C 273,457 209,483 155,535 101,586 74,649 74,723 74,796 101,859 155,911 209,963 273,989 346,989 419,989 480,963 531,910 582,859 608,796 608,723 608,648 583,586 532,535 482,483 420,457 346,457 Z"/>
  </g>
  <g id="bullet-char-template-8211" transform="scale(0.00048828125,-0.00048828125)">
   <path d="M -4,459 L 1135,459 1135,606 -4,606 -4,459 Z"/>
  </g>
  <g id="bullet-char-template-61548" transform="scale(0.00048828125,-0.00048828125)">
   <path d="M 173,740 C 173,903 231,1043 346,1159 462,1274 601,1332 765,1332 928,1332 1067,1274 1183,1159 1299,1043 1357,903 1357,740 1357,577 1299,437 1183,322 1067,206 928,148 765,148 601,148 462,206 346,322 231,437 173,577 173,740 Z"/>
  </g>
 </defs>
 <g class="Page">
  <g class="Group">
   <g class="com.sun.star.drawing.ClosedBezierShape">
    <g id="id3">
     <rect class="BoundingBox" stroke="none" fill="none" x="14017" y="5715" width="537" height="534"/>
     <path fill="rgb(255,255,255)" stroke="none" d="M 14327,6248 L 14327,6185 C 14340,6182 14354,6178 14367,6174 14379,6168 14391,6161 14402,6154 L 14447,6198 14506,6139 14461,6095 C 14476,6073 14486,6048 14492,6021 L 14552,6020 14552,5938 14490,5938 C 14488,5926 14485,5912 14479,5899 14473,5886 14466,5875 14459,5864 L 14502,5822 14443,5763 14400,5805 C 14378,5791 14353,5780 14326,5775 L 14326,5715 14243,5715 14243,5775 C 14229,5778 14216,5782 14204,5788 14191,5792 14179,5799 14167,5806 L 14124,5764 14066,5823 14110,5865 C 14094,5888 14084,5913 14079,5940 L 14017,5941 14017,6022 14079,6022 C 14082,6035 14086,6049 14091,6062 14097,6074 14104,6086 14111,6097 L 14066,6142 14125,6199 14170,6156 C 14193,6170 14218,6181 14245,6185 L 14245,6248 14327,6248 Z M 14336,6101 C 14270,6129 14193,6097 14164,6031 14136,5965 14167,5888 14235,5860 14301,5833 14378,5864 14406,5930 14434,5996 14402,6073 14336,6101 Z"/>
    </g>
   </g>
   <g class="com.sun.star.drawing.ClosedBezierShape">
    <g id="id4">
     <rect class="BoundingBox" stroke="none" fill="none" x="13999" y="5697" width="572" height="570"/>
     <path fill="none" stroke="rgb(0,0,0)" stroke-width="35" stroke-linejoin="round" stroke-linecap="round" d="M 14327,6248 L 14327,6185 C 14340,6182 14354,6178 14367,6174 14379,6168 14391,6161 14402,6154 L 14447,6198 14506,6139 14461,6095 C 14476,6073 14486,6048 14492,6021 L 14552,6020 14552,5938 14490,5938 C 14488,5926 14485,5912 14479,5899 14473,5886 14466,5875 14459,5864 L 14502,5822 14443,5763 14400,5805 C 14378,5791 14353,5780 14326,5775 L 14326,5715 14243,5715 14243,5775 C 14229,5778 14216,5782 14204,5788 14191,5792 14179,5799 14167,5806 L 14124,5764 14066,5823 14110,5865 C 14094,5888 14084,5913 14079,5940 L 14017,5941 14017,6022 14079,6022 C 14082,6035 14086,6049 14091,6062 14097,6074 14104,6086 14111,6097 L 14066,6142 14125,6199 14170,6156 C 14193,6170 14218,6181 14245,6185 L 14245,6248 14327,6248 Z"/>
    </g>
   </g>
   <g class="com.sun.star.drawing.ClosedBezierShape">
    <g id="id5">
     <rect class="BoundingBox" stroke="none" fill="none" x="14136" y="5832" width="299" height="298"/>
     <path fill="none" stroke="rgb(0,0,0)" stroke-width="35" stroke-linejoin="round" stroke-linecap="round" d="M 14336,6101 C 14270,6129 14192,6097 14164,6031 14136,5965 14167,5888 14235,5860 14301,5833 14378,5864 14406,5930 14434,5996 14402,6073 14336,6101 Z"/>
    </g>
   </g>
   <g class="com.sun.star.drawing.ClosedBezierShape">
    <g id="id6">
     <rect class="BoundingBox" stroke="none" fill="none" x="14340" y="5998" width="263" height="262"/>
     <path fill="rgb(255,255,255)" stroke="none" d="M 14350,6179 C 14322,6113 14353,6036 14421,6008 14487,5980 14564,6012 14591,6078 14619,6144 14588,6222 14522,6248 14454,6276 14378,6245 14350,6179 Z"/>
    </g>
   </g>
   <g class="com.sun.star.drawing.ClosedBezierShape">
    <g id="id7">
     <rect class="BoundingBox" stroke="none" fill="none" x="14203" y="5864" width="537" height="534"/>
     <path fill="rgb(255,255,255)" stroke="none" d="M 14513,6397 L 14513,6334 C 14527,6331 14540,6327 14553,6322 14565,6317 14578,6310 14589,6303 L 14633,6347 14692,6288 14647,6244 C 14662,6222 14672,6195 14678,6169 L 14738,6169 14738,6086 14678,6087 C 14675,6073 14671,6061 14665,6048 14659,6035 14654,6024 14645,6013 L 14688,5971 14629,5912 14586,5954 C 14564,5940 14539,5929 14512,5924 L 14512,5864 14429,5864 14429,5924 C 14416,5927 14402,5931 14390,5936 14377,5941 14366,5948 14355,5955 L 14311,5913 14252,5971 14296,6014 C 14282,6037 14270,6062 14265,6089 L 14203,6089 14203,6171 14266,6171 C 14269,6184 14272,6198 14277,6211 14283,6223 14290,6235 14297,6246 L 14252,6291 14311,6348 14356,6303 C 14379,6319 14404,6330 14432,6334 L 14432,6397 14513,6397 Z M 14350,6180 C 14322,6114 14355,6037 14421,6009 14487,5981 14564,6013 14592,6079 14620,6145 14589,6222 14522,6249 14456,6277 14379,6246 14350,6180 Z"/>
    </g>
   </g>
   <g class="com.sun.star.drawing.ClosedBezierShape">
    <g id="id8">
     <rect class="BoundingBox" stroke="none" fill="none" x="14185" y="5846" width="572" height="570"/>
     <path fill="none" stroke="rgb(0,0,0)" stroke-width="35" stroke-linejoin="round" stroke-linecap="round" d="M 14513,6397 L 14513,6334 C 14527,6331 14540,6327 14553,6322 14565,6317 14578,6310 14589,6303 L 14633,6347 14692,6288 14647,6244 C 14662,6222 14672,6195 14678,6169 L 14738,6169 14738,6086 14678,6087 C 14675,6073 14671,6061 14665,6048 14659,6035 14654,6024 14645,6013 L 14688,5971 14629,5912 14586,5954 C 14564,5940 14539,5929 14512,5924 L 14512,5864 14429,5864 14429,5924 C 14416,5927 14402,5931 14390,5936 14377,5941 14366,5948 14355,5955 L 14311,5913 14252,5971 14296,6014 C 14282,6037 14270,6062 14265,6089 L 14203,6089 14203,6171 14266,6171 C 14269,6184 14272,6198 14277,6211 14283,6223 14290,6235 14297,6246 L 14252,6291 14311,6348 14356,6303 C 14379,6319 14404,6330 14432,6334 L 14432,6397 14513,6397 Z"/>
    </g>
   </g>
   <g class="com.sun.star.drawing.ClosedBezierShape">
    <g id="id9">
     <rect class="BoundingBox" stroke="none" fill="none" x="14322" y="5980" width="299" height="297"/>
     <path fill="none" stroke="rgb(0,0,0)" stroke-width="35" stroke-linejoin="round" stroke-linecap="round" d="M 14522,6248 C 14456,6276 14378,6245 14350,6179 14322,6113 14354,6036 14420,6008 14486,5980 14564,6012 14592,6078 14620,6144 14589,6222 14522,6248 Z"/>
    </g>
   </g>
  </g>
 </g>
</svg>